<svg viewBox="0 0 80 80">
  <g fill="none" fill-rule="evenodd">
    <path d="M0 0h80v80H0z"/>
    <path d="M56.2669648 25.6474474C59.8950821 18.5140277 66.1428571 10 66.1428571 10s-7.6953487 1.4023104-17.4794112 3.8763867c1.6162069 3.125149 2.0586603 3.6576931 1.8232417 3.4256441-.2955255-.2954868-.0968389-.3973213-2.0887137-1.9598958-.3873554-.3038339-.9182994-.5492382-1.3941454-.9048241-3.5847068.9098324-7.2545651 1.8981273-10.6172104 2.9014471 2.4510245 2.661051 3.5663408 4.6443186 2.2122666 2.8279927-.6895593-.9265265-1.9618214-1.7412021-3.4745109-2.4456962-4.1457043 1.2754348-7.7220629 2.5658942-9.9176332 3.7445028-.4708372.2570902-.956701.5492382-1.4425649.8614193 3.1873337 3.1718926 4.8552993 6.0332737 3.3108867 3.9631964-.86988-1.1719309-2.6797646-2.1669035-4.7233981-2.9782403-2.6664075 1.9799288-5.3478416 4.6994094-7.7187237 7.7561123 3.5596624 3.377231 5.506457 6.6943629 3.8785627 4.5074264-.9049423-1.2153357-2.8183443-2.2386885-4.9588167-3.0683888-1.6646263 2.3238287-3.1255571 4.8045827-4.26090906 7.2903449 3.99209786 3.5725528 6.30955156 7.4773196 4.57313086 5.1518214-.9617099-1.2954677-3.0671199-2.3755806-5.37956468-3.2303222-1.28561913 3.3505203-1.90839307 6.6392722-1.50768061 9.4822896 1.03016494 6.3755043 2.05866024 5.3170938 2.41262291 7.7794842.10518702.7729401-.08849067 1.8179953-.407391 2.8964388C16.1706747 54.2078367 26.527422 43.4951866 30.7165368 40.8124331c6.0273832-3.8647008-13.5574381 9.8378756-19.5881605 25.1965137.8164516.0901486 1.7314117.3138505 2.7298536.7545766 3.8268039 1.6861114 10.8993788 3.285413 14.3788986 3.2353305-.1803206-2.9698932-.6845504-6.006563-1.9033842-7.5207244-2.0085711-2.4941093 2.092053 1.6827725 4.5748006 7.2319153 1.7080368-.2687762 4.0171423-.7946426 6.4314349-1.9899453.0801425-3.7628664-.1285619-9.5657606-1.9785178-11.8612092-2.2874002-2.8413481 3.345949 2.9632155 5.4964392 9.59581 2.4026051-1.9699123 4.6282289-4.8312933 6.1075257-9.011514.0901603-3.7511804-.0768032-9.7594129-1.9701696-12.1082829-1.8499558-2.3004569 1.4976628 1.0817824 3.9770711 5.9748442 1.1002896-3.3354956 1.9785178-5.9331088 2.6680771-8.155103-.1686331-3.0299922-.672863-6.1634883-1.9167412-7.7076992-1.6028498-1.9899453.6928986.2737844 2.9452365 4.0950804.5109084-2.0116478.8598622-3.8897421 1.0902718-6.070001.1636243-1.5475497.9433439-3.6209659 2.0436336-5.8846956-.3055433-1.3255172-.7329699-2.4724068-1.345726-3.2319917-1.3340386-1.652723.0217052-.3739494 1.8098846 2.2921099" fill="#000" fill-rule="nonzero"/>
  </g>
</svg>