<svg viewBox="0 0 30 37">
  <path fill="#000" fill-rule="nonzero" d="M19.7352322.4c.9016766 0 1.6401186.65074873 1.6401186 1.44825385 0 .79653962-.738442 1.44825385-1.6401186 1.44825385h-.090362v7.8311913C25.2725759 12.9524989 29.3 17.8147698 29.3 23.528614 29.3 30.8027103 22.7745042 36.7 14.7254858 36.7 6.67549582 36.7.15 30.8027103.15 23.528614c0-5.836463 4.20231826-10.7827327 10.0204643-12.5119478V3.2965077h-.09036197c-.90264825 0-1.6410903-.65171423-1.6410903-1.44825385C8.43901203 1.05074873 9.17745408.4 10.08010233.4ZM8.75169962 14.15S4.26377471 16.1672902 4 20.2c1.88209359-1.8068635 2.41058171-2.5288607 6.6-4.734132Z"/>
</svg>