<svg viewBox="0 0 80 80">
  <g fill="none" fill-rule="evenodd">
    <path d="M0 0h80v80H0z"/>
    <path d="M52 62c-1.8443852 1.663902-4.2904448 3.3174564-7.1451182 4.7330148-7.4562645 3.6941108-14.8544234 4.3542908-16.5207429 1.4735052-.5529407-.9581923-.4011163-2.187493.3186438-3.5368265 1.1433688.937497 2.597884 1.421767 4.121751 1.2479265 2.3598384 2.11299 9.1488253 1.281039 15.9940435-2.1109204C49.9138204 63.2396484 50.9953349 62.6312066 52 62ZM38.5009179 10c.9601108 0 1.9110426.0273317 2.8491241.0747068-8.9891879.6191718-16.1877131 5.0448225-17.5505399 10.6996088C28.1287817 19.0236797 33.3626845 18 39 18c.9518994 0 1.894575.0296726 2.8224925.0853086-7.9482192.7293644-14.4858414 4.229463-17.1042338 8.9101013.757215 1.3543974 1.8629928 2.6026638 3.2489065 3.7010173C30.9188689 29.7108516 34.2637603 29.1091321 37.8218096 29c-3.4166253.276101-6.5726548 1.0294755-9.2649442 2.1414532 3.6543237 2.6410633 8.9993718 4.3062179 14.9538848 4.3062179 11.0146551 0 19.9457046-5.6977565 19.9457046-12.7238355 0-3.3618039-2.0468901-6.4156702-5.3843306-8.691493C64.1595569 16.9641271 68 21.236989 68 26c0 8.8354402-13.2065715 16-29.4990821 16-2.9553184 0-5.8090634-.2356808-8.5008635-.6742657 3.855829 2.3743555 9.1125176 3.8357841 14.9068874 3.8357841 10.5557529 0 19.3202378-4.8514633 21.0875239-11.2347725.0018448.0241089.0055343.0482179.0055343.0723268 0 3.0837742-1.4715281 5.963473-4.0210477 8.4061192.0141466.1940112.0210477.3888849.0210477.5844524C62 50.7281958 51.7034775 57 39 57c-4.5989228 0-8.8827904-.8222191-12.4768414-2.2385752 1.5308528 4.7338586 12.2741537 6.7596382 24.5150164 4.5192756 1.7227244-.3142476 3.3810833-.7001657 4.961825-1.1375396-3.0157143 1.2275872-6.510384 2.2511891-10.2965915 2.944004-12.6232162 2.3099957-23.6505458.0845345-24.6330666-4.9691553-.2326115-1.1950471.118316-2.4394344.954453-3.6745269C18.2830665 49.9517373 16 46.6332735 16 42.9896443c0-.1960663.0066143-.3911922.0197144-.5852994C13.4711394 39.961785 12 37.0824396 12 33.9990727c0-.3067507.0145666-.6114835.0433121-.913969C10.0949283 30.9495751 9 28.5440521 9 26c0-8.8372623 13.2065715-16 29.5009179-16Zm23.2778188 32.5942337-.0465175.042885C56.9303023 47.0663572 48.5431976 50 39 50c-6.7999106 0-13.0128575-1.4894496-17.7600763-3.9481121 3.2042818 4.4529424 10.7338621 7.5796769 19.5095673 7.5796769 10.9115402 0 19.8879676-4.8314055 21.0292457-11.0373311Z" fill="#000" fill-rule="nonzero"/>
  </g>
</svg>