<svg viewBox="0 0 80 80">
  <g fill="none" fill-rule="evenodd">
    <path d="M0 0h80v80H0z"/>
    <path d="M41.0950917 74s20.46639-6.5749418 18.9495784-25.6757379c-.9087864-11.4798775-6.0233517-10.3029516-14.0203469-26.6311819C43.9450069 17.3151745 47.2289935 8 47.2289935 8s-12.0483292 5.5629149-13.8008726 15.4390692c-1.3135946-2.0741702-5.14708-3.3594121-5.14708-3.3594121s2.0793163 4.2469565 1.095746 9.1842253c-1.0388453 5.0375016-9.2471862 9.3830741-10.3738212 19.0603797-1.126635 9.6773056 5.3340397 14.8134231 13.5488835 18.5656828 0 0-5.4771044-3.8363258 3.2839867-15.7025842 6.9321381 10.9366809 7.7758951 13.8547459 7.7791466 15.2741702.0081286 2.5333007.8762716 3.4903613-2.5198908 7.5384691" fill="#000" fill-rule="nonzero"/>
  </g>
</svg>