<svg viewBox="0 0 80 80">
  <g fill="none" fill-rule="evenodd">
    <path d="M0 0h80v80H0z"/>
    <g fill="#000" fill-rule="nonzero">
      <path d="M41.4015602 51.0817981c-1.7280327 1.9734709-4.2607613 3.2262343-7.089724 3.2262343-5.2091529 0-9.4308584-4.2225497-9.4308584-9.431098 0-2.9624171 1.369162-5.605011 3.5069116-7.3338246C24.5022107 29.5114223 24.3540936 20.12527634 27.9715404 12c-3.2954211 1.46720707-6.3874575 3.54605748-9.09335775 6.25350037-11.83757687 11.83714073-11.83757687 31.03095063 0 42.86809133 11.83831375 11.8378777 31.03016215 11.8378777 42.86773895 0C64.451085 58.4148858 66.5313564 55.3249816 68 52.0265291c-8.4846775 3.7789241-18.3436754 3.458364-26.5984398-.944731"/>
      <path d="M41.7754176 51C43.1592643 49.3047763 44 47.1076573 44 44.702047 44 39.343442 39.8506324 35 34.7323549 35 32.5657044 35 30.5779183 35.7846854 29 37.0879454c1.4207782 3.0500379 3.3202182 5.9143291 5.7417689 8.4480667C36.872212 47.7687642 39.2510379 49.5784685 41.7754176 51"/>
    </g>
  </g>
</svg>